<svg width="20" height="20" viewBox="0 0 20 20" fill="none" xmlns="http://www.w3.org/2000/svg">
<g id="building-estate">
<path id="Vector" d="M2.5 17.5H17.5M15.8333 17.5V14.1667M15.8333 14.1667C16.2754 14.1667 16.6993 13.9911 17.0118 13.6786C17.3244 13.366 17.5 12.9421 17.5 12.5V10.8334C17.5 10.3913 17.3244 9.96742 17.0118 9.65486C16.6993 9.3423 16.2754 9.16671 15.8333 9.16671C15.3913 9.16671 14.9674 9.3423 14.6548 9.65486C14.3423 9.96742 14.1667 10.3913 14.1667 10.8334V12.5C14.1667 12.9421 14.3423 13.366 14.6548 13.6786C14.9674 13.9911 15.3913 14.1667 15.8333 14.1667ZM11.6667 17.5V5.83337C11.6667 5.17033 11.4033 4.53445 10.9344 4.06561C10.4656 3.59677 9.82971 3.33337 9.16667 3.33337H5.83333C5.17029 3.33337 4.53441 3.59677 4.06557 4.06561C3.59673 4.53445 3.33333 5.17033 3.33333 5.83337V17.5M7.5 14.1667V17.5M6.66667 10.8334H8.33333M6.66667 7.50004H8.33333" stroke="#EAECF0" stroke-width="1.5" stroke-linecap="round" stroke-linejoin="round"/>
</g>
</svg>
