<svg width="20" height="20" viewBox="0 0 20 20" fill="none" xmlns="http://www.w3.org/2000/svg">
<g id="instagram-line">
<path id="Vector" d="M10.0008 7.49984C8.61967 7.49984 7.50081 8.61909 7.50081 9.99984C7.50081 11.3809 8.62008 12.4998 10.0008 12.4998C11.3819 12.4998 12.5008 11.3806 12.5008 9.99984C12.5008 8.61875 11.3816 7.49984 10.0008 7.49984ZM10.0008 5.83317C12.3012 5.83317 14.1675 7.69742 14.1675 9.99984C14.1675 12.3003 12.3032 14.1665 10.0008 14.1665C7.70042 14.1665 5.83415 12.3023 5.83415 9.99984C5.83415 7.69945 7.6984 5.83317 10.0008 5.83317ZM15.4175 5.62413C15.4175 6.19922 14.9502 6.66581 14.3758 6.66581C13.8007 6.66581 13.3342 6.1985 13.3342 5.62413C13.3342 5.04975 13.8014 4.58317 14.3758 4.58317C14.9494 4.58245 15.4175 5.04975 15.4175 5.62413ZM10.0008 3.33317C7.93875 3.33317 7.60265 3.33863 6.64356 3.38134C5.99012 3.41201 5.55211 3.4999 5.14513 3.6579C4.78346 3.79816 4.52257 3.96565 4.2446 4.24363C3.96556 4.52267 3.79836 4.78286 3.65866 5.1447C3.5003 5.5526 3.41244 5.98993 3.38231 6.64246C3.33919 7.5625 3.33415 7.88405 3.33415 9.99984C3.33415 12.0619 3.33961 12.398 3.38231 13.357C3.413 14.0102 3.501 14.4488 3.65861 14.8548C3.79925 15.217 3.96708 15.4785 4.24371 15.7552C4.52386 16.0349 4.78482 16.2027 5.14322 16.341C5.55516 16.5003 5.9929 16.5883 6.64343 16.6183C7.56348 16.6614 7.88502 16.6665 10.0008 16.6665C12.0629 16.6665 12.399 16.661 13.358 16.6183C14.0097 16.5878 14.4487 16.4995 14.8558 16.342C15.217 16.2018 15.4793 16.0333 15.7562 15.7569C16.0363 15.4763 16.2037 15.216 16.3422 14.8568C16.5011 14.4463 16.5892 14.008 16.6193 13.3573C16.6624 12.4372 16.6675 12.1156 16.6675 9.99984C16.6675 7.93777 16.662 7.60168 16.6193 6.64265C16.5887 5.99072 16.5004 5.55108 16.3427 5.14415C16.2028 4.78349 16.0347 4.5218 15.757 4.24363C15.4775 3.96413 15.218 3.79728 14.8559 3.65769C14.4483 3.49945 14.0103 3.41147 13.3582 3.38135C12.4382 3.33821 12.1166 3.33317 10.0008 3.33317ZM10.0008 1.6665C12.2647 1.6665 12.5473 1.67484 13.4362 1.7165C14.323 1.75748 14.9279 1.89775 15.4592 2.104C16.0084 2.31581 16.4723 2.60192 16.9355 3.06511C17.398 3.52831 17.6842 3.99359 17.8967 4.5415C18.1022 5.07206 18.2425 5.67761 18.2842 6.56442C18.3237 7.45331 18.3342 7.73595 18.3342 9.99984C18.3342 12.2638 18.3258 12.5463 18.2842 13.4353C18.2432 14.3221 18.1022 14.9269 17.8967 15.4582C17.6848 16.0075 17.398 16.4713 16.9355 16.9346C16.4723 17.3971 16.0063 17.6832 15.4592 17.8957C14.9279 18.1013 14.323 18.2415 13.4362 18.2832C12.5473 18.3228 12.2647 18.3332 10.0008 18.3332C7.73692 18.3332 7.45428 18.3248 6.5654 18.2832C5.67859 18.2422 5.07442 18.1013 4.54248 17.8957C3.99386 17.6838 3.52928 17.3971 3.06609 16.9346C2.6029 16.4713 2.31748 16.0054 2.10498 15.4582C1.89873 14.9269 1.75915 14.3221 1.71748 13.4353C1.6779 12.5463 1.66748 12.2638 1.66748 9.99984C1.66748 7.73595 1.67581 7.45331 1.71748 6.56442C1.75845 5.67692 1.89873 5.07275 2.10498 4.5415C2.31678 3.9929 2.6029 3.52831 3.06609 3.06511C3.52928 2.60192 3.99456 2.3165 4.54248 2.104C5.07373 1.89775 5.6779 1.75817 6.5654 1.7165C7.45428 1.67692 7.73692 1.6665 10.0008 1.6665Z" fill="#475467"/>
</g>
</svg>
