<svg width="20" height="20" viewBox="0 0 20 20" fill="none" xmlns="http://www.w3.org/2000/svg">
<g id="linkedin-fill">
<path id="Vector" d="M5.78369 4.16645C5.78338 4.84504 5.37169 5.45569 4.74274 5.71045C4.11379 5.96521 3.39318 5.81321 2.92071 5.32613C2.44823 4.83904 2.31825 4.11413 2.59204 3.49323C2.86584 2.87233 3.48874 2.47942 4.16703 2.49978C5.06792 2.52682 5.7841 3.26515 5.78369 4.16645ZM5.83369 7.06645H2.50036V17.4998H5.83369V7.06645ZM11.1004 7.06645H7.78369V17.4998H11.067V12.0248C11.067 8.97475 15.042 8.69142 15.042 12.0248V17.4998H18.3337V10.8914C18.3337 5.74978 12.4504 5.94145 11.067 8.46642L11.1004 7.06645Z" fill="#475467"/>
</g>
</svg>
