<svg width="25" height="24" viewBox="0 0 25 24" fill="none" xmlns="http://www.w3.org/2000/svg">
<g id="mail">
<path id="Vector" d="M3.33325 7C3.33325 6.46957 3.54397 5.96086 3.91904 5.58579C4.29411 5.21071 4.80282 5 5.33325 5H19.3333C19.8637 5 20.3724 5.21071 20.7475 5.58579C21.1225 5.96086 21.3333 6.46957 21.3333 7M3.33325 7V17C3.33325 17.5304 3.54397 18.0391 3.91904 18.4142C4.29411 18.7893 4.80282 19 5.33325 19H19.3333C19.8637 19 20.3724 18.7893 20.7475 18.4142C21.1225 18.0391 21.3333 17.5304 21.3333 17V7M3.33325 7L12.3333 13L21.3333 7" stroke="white" stroke-width="2" stroke-linecap="round" stroke-linejoin="round"/>
</g>
</svg>
