<svg width="20" height="20" viewBox="0 0 20 20" fill="none" xmlns="http://www.w3.org/2000/svg">
<g id="notebook">
<path id="Vector" d="M7.49935 3.33337V18.3334M10.8327 6.66671H12.4993M10.8327 10H12.4993M4.99935 3.33337H14.166C14.608 3.33337 15.032 3.50897 15.3445 3.82153C15.6571 4.13409 15.8327 4.55801 15.8327 5.00004V15C15.8327 15.4421 15.6571 15.866 15.3445 16.1786C15.032 16.4911 14.608 16.6667 14.166 16.6667H4.99935C4.77834 16.6667 4.56637 16.5789 4.41009 16.4226C4.25381 16.2664 4.16602 16.0544 4.16602 15.8334V4.16671C4.16602 3.94569 4.25381 3.73373 4.41009 3.57745C4.56637 3.42117 4.77834 3.33337 4.99935 3.33337Z" stroke="#EAECF0" stroke-width="1.5" stroke-linecap="round" stroke-linejoin="round"/>
</g>
</svg>
