<svg width="25" height="24" viewBox="0 0 25 24" fill="none" xmlns="http://www.w3.org/2000/svg">
<g id="phone-call">
<path id="Vector" d="M15.3333 7C15.8637 7 16.3724 7.21071 16.7475 7.58579C17.1225 7.96086 17.3333 8.46957 17.3333 9M15.3333 3C16.9246 3 18.4507 3.63214 19.5759 4.75736C20.7011 5.88258 21.3333 7.4087 21.3333 9M5.33325 4H9.33325L11.3333 9L8.83325 10.5C9.90421 12.6715 11.6617 14.429 13.8333 15.5L15.3333 13L20.3333 15V19C20.3333 19.5304 20.1225 20.0391 19.7475 20.4142C19.3724 20.7893 18.8637 21 18.3333 21C14.4325 20.763 10.7534 19.1065 7.99008 16.3432C5.22676 13.5798 3.5703 9.90074 3.33325 6C3.33325 5.46957 3.54397 4.96086 3.91904 4.58579C4.29411 4.21071 4.80282 4 5.33325 4Z" stroke="white" stroke-width="2" stroke-linecap="round" stroke-linejoin="round"/>
</g>
</svg>
