<svg width="20" height="20" viewBox="0 0 20 20" fill="none" xmlns="http://www.w3.org/2000/svg">
<g id="product-hunt-line">
<path id="Vector" d="M10.0008 18.3332C5.39844 18.3332 1.66748 14.6022 1.66748 9.99984C1.66748 5.39746 5.39844 1.6665 10.0008 1.6665C14.6032 1.6665 18.3342 5.39746 18.3342 9.99984C18.3342 14.6022 14.6032 18.3332 10.0008 18.3332ZM10.0008 16.6665C13.6827 16.6665 16.6675 13.6818 16.6675 9.99984C16.6675 6.31794 13.6827 3.33317 10.0008 3.33317C6.31891 3.33317 3.33415 6.31794 3.33415 9.99984C3.33415 13.6818 6.31891 16.6665 10.0008 16.6665ZM11.1121 9.99984C11.8024 9.99984 12.3621 9.44017 12.3621 8.74984C12.3621 8.05948 11.8024 7.49984 11.1121 7.49984H8.75083V9.99984H11.1121ZM11.1121 5.83317C12.7229 5.83317 14.0287 7.139 14.0287 8.74984C14.0287 10.3607 12.7229 11.6665 11.1121 11.6665H8.75083V14.1665H7.08415V5.83317H11.1121Z" fill="#475467"/>
</g>
</svg>
