<svg width="20" height="20" viewBox="0 0 20 20" fill="none" xmlns="http://www.w3.org/2000/svg">
<g id="report">
<path id="Vector" d="M6.66732 4.16667H5.00065C4.55862 4.16667 4.1347 4.34226 3.82214 4.65482C3.50958 4.96738 3.33398 5.39131 3.33398 5.83333V15.8333C3.33398 16.2754 3.50958 16.6993 3.82214 17.0118C4.1347 17.3244 4.55862 17.5 5.00065 17.5H9.74815M6.66732 4.16667C6.66732 3.72464 6.84291 3.30072 7.15547 2.98816C7.46803 2.67559 7.89196 2.5 8.33398 2.5H10.0007C10.4427 2.5 10.8666 2.67559 11.1792 2.98816C11.4917 3.30072 11.6673 3.72464 11.6673 4.16667M6.66732 4.16667C6.66732 4.60869 6.84291 5.03262 7.15547 5.34518C7.46803 5.65774 7.89196 5.83333 8.33398 5.83333H10.0007C10.4427 5.83333 10.8666 5.65774 11.1792 5.34518C11.4917 5.03262 11.6673 4.60869 11.6673 4.16667M15.0007 11.6667V15H18.334M15.0007 11.6667C15.8847 11.6667 16.7326 12.0179 17.3577 12.643C17.9828 13.2681 18.334 14.1159 18.334 15M15.0007 11.6667C14.1166 11.6667 13.2687 12.0179 12.6436 12.643C12.0185 13.2681 11.6673 14.1159 11.6673 15C11.6673 15.8841 12.0185 16.7319 12.6436 17.357C13.2687 17.9821 14.1166 18.3333 15.0007 18.3333C15.8847 18.3333 16.7326 17.9821 17.3577 17.357C17.9828 16.7319 18.334 15.8841 18.334 15M15.0007 9.16667V5.83333C15.0007 5.39131 14.8251 4.96738 14.5125 4.65482C14.1999 4.34226 13.776 4.16667 13.334 4.16667H11.6673M6.66732 9.16667H10.0007M6.66732 12.5H9.16732" stroke="#EAECF0" stroke-width="1.5" stroke-linecap="round" stroke-linejoin="round"/>
</g>
</svg>
