<svg width="20" height="20" viewBox="0 0 20 20" fill="none" xmlns="http://www.w3.org/2000/svg">
<g id="threads-fill">
<path id="Vector" d="M13.921 9.25675C13.7859 6.76781 12.4259 5.3429 10.1424 5.32832C8.76612 5.31983 7.61479 5.90324 6.91031 6.9722L8.16621 7.83372C8.69454 7.0321 9.52854 6.86679 10.1328 6.87238C10.8847 6.87717 11.4521 7.09578 11.8194 7.52211C12.0865 7.83249 12.2653 8.26139 12.3538 8.80267C11.6872 8.68942 10.9662 8.65458 10.1955 8.69875C8.02436 8.82383 6.62859 10.0901 6.72233 11.8495C6.7699 12.742 7.21453 13.5098 7.97425 14.0114C8.61662 14.4354 9.44387 14.6427 10.3037 14.5958C11.4392 14.5336 12.33 14.1004 12.9514 13.3082C13.4233 12.7067 13.7218 11.9271 13.8536 10.9448C14.3948 11.2714 14.7958 11.7012 15.0173 12.2177C15.3939 13.0959 15.4159 14.5391 14.2384 15.7156C13.2067 16.7462 11.9665 17.1922 10.0924 17.2059C8.01338 17.1905 6.44107 16.5237 5.41881 15.2242C4.46154 14.0073 3.96682 12.2497 3.94836 10C3.96682 7.75032 4.46154 5.99264 5.41881 4.77577C6.44107 3.47622 8.01334 2.80951 10.0923 2.79406C12.1864 2.80962 13.7861 3.47956 14.8475 4.78537C15.368 5.42572 15.7603 6.23101 16.019 7.16995L17.4907 6.77728C17.1771 5.62156 16.6838 4.62565 16.0124 3.79972C14.6517 2.12561 12.6514 1.26778 10.0872 1.25C7.52824 1.26772 5.56045 2.12881 4.23849 3.80931C3.06213 5.30475 2.45532 7.39785 2.43494 10.0062C2.45532 12.6144 3.06213 14.6952 4.23849 16.1907C5.56045 17.8712 7.5385 18.7323 10.0975 18.75C12.3725 18.7342 13.9761 18.1386 15.2972 16.8188C17.0256 15.0919 16.9735 12.9275 16.4039 11.5988C15.9663 10.5786 15.0951 9.76075 13.921 9.25675ZM10.2225 13.054C9.27087 13.1076 8.28228 12.6805 8.23353 11.7657C8.1974 11.0873 8.71629 10.3305 10.2808 10.2403C11.0495 10.196 11.7615 10.248 12.3918 10.3858C12.2115 12.6373 11.154 13.0029 10.2225 13.054Z" fill="#475467"/>
</g>
</svg>
